/* XPM */
static char *f2895a064bb54a2aa94686a9469144d105RY3SAHfTuNwaqN[] = {
/* columns rows colors chars-per-pixel */
"42 64 162 2 ",
"   c None",
".  c black",
"X  c #010000",
"o  c #020201",
"O  c #030201",
"+  c #030302",
"@  c #040302",
"#  c #050402",
"$  c #060403",
"%  c #060503",
"&  c #070503",
"*  c #070603",
"=  c #080604",
"-  c #090704",
";  c #0A0704",
":  c #0A0705",
">  c #0A0805",
",  c #0B0805",
"<  c #0B0905",
"1  c #0C0905",
"2  c #0C0906",
"3  c #0D0A06",
"4  c #0E0B07",
"5  c #0F0B07",
"6  c #130E09",
"7  c #130F09",
"8  c #140F09",
"9  c #14100A",
"0  c #15100A",
"q  c #17120B",
"w  c #1A140C",
"e  c #1C160E",
"r  c #1E170E",
"t  c #1F180F",
"y  c #20190F",
"u  c #231B10",
"i  c #241B11",
"p  c #241C11",
"a  c #251C11",
"s  c #251D12",
"d  c #271E13",
"f  c #2D2215",
"g  c #302517",
"h  c #352919",
"j  c #362A1A",
"k  c #372A1A",
"l  c #372B1A",
"z  c #382B1A",
"x  c #392C1B",
"c  c #453521",
"v  c #473722",
"b  c #493823",
"n  c #4A3923",
"m  c #4B3923",
"M  c #4B3A23",
"N  c #4B3A24",
"B  c #4C3A24",
"V  c #4C3B24",
"C  c #4E3C25",
"Z  c #4F3C25",
"A  c #4F3D25",
"S  c #503D26",
"D  c #503E26",
"F  c #513E26",
"G  c #513F27",
"H  c #524027",
"J  c #534027",
"K  c #534028",
"L  c #534128",
"P  c #544128",
"I  c #554128",
"U  c #554228",
"Y  c #554229",
"T  c #564228",
"R  c #564229",
"E  c #564329",
"W  c #574329",
"Q  c #58442A",
"!  c #59442A",
"~  c #59452A",
"^  c #5A452B",
"/  c #5A462B",
"(  c #5B462B",
")  c #5B472B",
"_  c #5C472C",
"`  c #5D482C",
"'  c #5E482D",
"]  c #5E492D",
"[  c #5F492D",
"{  c #604A2D",
"}  c #614A2E",
"|  c #614B2E",
" . c #624B2E",
".. c #634D2F",
"X. c #644D2F",
"o. c #644D30",
"O. c #654E30",
"+. c #664F30",
"@. c #674F31",
"#. c #685031",
"$. c #695031",
"%. c #695132",
"&. c #6A5132",
"*. c #6A5232",
"=. c #6B5232",
"-. c #6B5233",
";. c #6C5333",
":. c #6C5433",
">. c #6D5433",
",. c #6D5434",
"<. c #6E5434",
"1. c #6E5534",
"2. c #6F5534",
"3. c #6F5535",
"4. c #705635",
"5. c #715735",
"6. c #725736",
"7. c #725836",
"8. c #735836",
"9. c #735936",
"0. c #735937",
"q. c #745937",
"w. c #755A37",
"e. c #755A38",
"r. c #765A38",
"t. c #765B38",
"y. c #775B38",
"u. c #775C38",
"i. c #795D38",
"p. c #785C39",
"a. c #785D39",
"s. c #795D39",
"d. c #7A5D39",
"f. c #7A5E3A",
"g. c #7B5E3A",
"h. c #7B5F3A",
"j. c #7C5F3A",
"k. c #7C5F3B",
"l. c #7C603B",
"z. c #7D603B",
"x. c #7E613B",
"c. c #7E613C",
"v. c #7F613C",
"b. c #7F623C",
"n. c #80623C",
"m. c #80633D",
"M. c #82643D",
"N. c #85663F",
"B. c #886940",
"V. c #977447",
"C. c #9D7849",
"Z. c #9D794A",
"A. c #9F7A4A",
"S. c #A17B4B",
"D. c #A37D4C",
"F. c #AC8451",
"G. c #AE8552",
"H. c #AF8652",
"J. c #B08753",
"K. c #B18853",
"L. c #B28853",
"P. c #B48A54",
/* pixels */
"                                                                                    ",
"                                                                                    ",
"                                                                                    ",
"      . # > = = > ; = > = ; > = > = = < = > = > = ; > = > = > = = > = > > # .       ",
"      * s.D.D.S.A.D.A.D.S.S.S.S.S.S.S.S.S.S.S.S.S.S.D.S.S.S.D.S.S.S.S.S.D.s.#       ",
"      # M.K.H.H.H.H.H.J.H.H.H.H.H.H.H.H.H.H.H.J.H.H.H.J.H.H.H.J.H.H.H.H.J.M.;       ",
"      # ` y.&.&.&.&.&.&.&.:.&.&.&.:.:.&.&.:.&.&.&.&.:.&.&.&.:.%.&.&.;.s.N.@.#       ",
"      # { D 1 1 1 > 4 1 > 1 1 1 1 1 > 1 > < 1 1 1 1 > 1 > 1 > 1 1 > w :.H.V.#       ",
"      # ` n > c A A A A A A A A D S Z A A A A A A A A A A A A A D f 4 3.J.A.;       ",
"      # | n 4 3.M.l.0.0.0.0.0.0.q.8.0.8.8.8.0.0.0.0.0.0.0.0.0.0.l.V 1 3.J.C.#       ",
"      # { n 4 3.l.0.R R U U U U U U U U U U U U U U J U L L U Q q.b 4 3.J.A.=       ",
"      # { n 1 :.l.y.R K J U J U U U G U U J U J L J Q J U L U U q.N 1 3.J.A.=       ",
"      # { n 1 3.x.0.R K U U J R U G U G R J U J U J U J K K U U q.n 4 3.K.A.=       ",
"      # { n 6 3.x.0.R R R ( ( ( _ _ _ _ ( ( ( [ ) ) ( ) Q K K U q.n 1 3.J.C.=       ",
"      # { n 1 ;.l.0.R K O.s.s.s.s.s.s.s.s.s.s.s.s.s.s.w.Q U K U q.n 1 3.K.C.#       ",
"      # { V # i _ x.3.( O.s.O.{ { X.| | | { | | | | :.s.Q U K U q.n 4 3.K.A.=       ",
"      # { N . . g { j.` O.s.Q K K K J K K K K K K K @.u.^ K K Q q.b 1 ;.J.C.=       ",
"      # { N . . . y y.` O.y.( K K K R K K K J Q R K o.u.) K K U q.b 6 3.J.A.=       ",
"      # { N . . . y y.` O.y.^ K R R J J U K J K K K O.f.( K U U q.n 6 ;.K.A.=       ",
"      # { N . . s D s._ O.s.^ R J K K R K U K U K K O.u.Q K K Q q.n 1 ;.J.C.=       ",
"      # { V . q U x.0.( @.u.( R U K U K U K U K K K @.u./ U K Y q.n 4 3.J.A.#       ",
"      # { n 1 @.l.q.Q R | u.Q K K U K U K U K U U K O.u./ K U U q.n 1 :.J.C.=       ",
"      # ` n 4 3.l.0.K K @.u.Q J U K U K U K U K K K @.u./ K U U y.b 6 <.J.A.=       ",
"      # | n 4 3.x.0.Q K @.s.( K K U K U K U K U K K O.u.Q K K U q.N 1 <.J.A.=       ",
"      # { n 4 :.M.0.U D O.u.( K U K U K U K U K U K O.a.) J K U q.n 4 3.K.C.#       ",
"      # { n 4 :.n.0.R U O.s.( K K U K U K U K U K K O.a.Q U U U q.b 1 3.K.A.=       ",
"      # [ n 4 0.x.0.R D O.u.Q J K U U K H H H H K K O.a.Q K K U q.n 1 3.J.C.=       ",
"      # [ n 4 :.l.6.R R O.s.| ) ` ` ` ` ` ` ` ` ` ` %.a.) K U K q.n 4 3.J.A.=       ",
"      # | n 4 3.n.8.K K o.s.l.l.l.l.l.l.u.l.l.l.l.a.l.u.^ K U Q q.b 1 ;.K.C.#       ",
"      # { n 5 :.n.8.R R ( { [ [ ` ` [ [ ` ` [ [ ] ] ` ` Q K K K q.b 6 3.K.A.=       ",
"      # { n 4 3.n.8.R K K K K K K K U H K K U H K U K K K K K Q q.n 4 3.J.C.=       ",
"      # { n 4 :.k.8.R R K R K K K U K U K U K U K K H N N n A K q.n 1 3.J.A.=       ",
"      # [ n 4 3.x.0.Q U K R K R K K K R J R U R K R l = > = e R q.n 6 <.J.C.#       ",
"      # [ n 4 3.l.0.K K ` :.:.&.:.3.&.&.;.;.&.:.&.l 6 . . . ; s &.n 1 :.K.A.=       ",
"      # [ M 4 3.n.0.K K @.x.x.x.x.x.x.x.x.x.n.n.s.e . . . . . . { n 1 3.J.C.=       ",
"      # [ M 1 :.x.0.R K o.x.l.x.x.x.x.j.x.x.l.l.s.y . . . . . @ { n 4 3.J.A.=       ",
"      # { n 1 3.n.8.R G o.x.x.x.x.l.l.n.l.n.x.l.s.e . . . . . @ { n 1 <.K.C.;       ",
"      # { n 6 3.l.q.R R ` :.:.&.&.&.;.:.&.&.:.&.&.l q . . . = d &.N 4 <.K.A.=       ",
"      # { n 1 :.x.0.R K K U J Q R K R K R J K J R R l = > 4 y J q.n 6 <.J.C.=       ",
"      # ` n 6 3.x.6.R R U K J K J J R K K J R R J R D V A | :.U q.n 1 :.J.A.=       ",
"      # | n 4 :.n.0.R K R J R J K R K U K U K U J R J J J 3.0.Q q.n 1 3.J.A.#       ",
"      # [ M 4 4.x.0.R J R K J J K J K K U K U K J J K Q J :.0.U q.n 1 3.J.C.=       ",
"      # [ n 4 :.n.q.Q K U Q Q Q Q R Q Q K Q Q Q Q Q R R K :.0.Q 0.N 4 3.J.A.=       ",
"      # | n 4 4.l.0.K K { q.0.q.w.u.0.0.e.u.0.0.w.q.q.6.( :.0.Q q.N 1 3.J.A.=       ",
"      # [ n 4 :.l.0.Q K @.l.:.@.:.%.:.@.&.@.:.&.&.i.x.s.( ;.0.( q.n 4 3.K.A.=       ",
"      # | n > [ u.0.K K O.u.Q K J K K U K U K K U 6.x.s.( &.0.U q.n 1 3.J.C.=       ",
"      # { N . > V 0.U K O.u.~ U K K U K U K U K R 0.x.s.U :.0.U q.n 1 3.J.C.#       ",
"      # { N . . q h K K @.u.Q U K U K U K U K U U 0.x.w.( ;.0.( q.n 4 3.K.A.=       ",
"      # { N . . . 6 D K O.s.( K R U G G R U G R R 8.x.y.Q :.0.U q.b 1 ;.J.C.=       ",
"      # { N . . . q J K O.u.( K G U R U R G U R R 6.x.s.( :.0.U q.b 6 3.J.A.=       ",
"      # { N . . . q D K @.u.Q K G R U R U U G G R 8.x.y.( &.0.Q q.n 6 ;.K.A.=       ",
"      # { N . . s c K K O.u.( K U R G G G R R U R q.l.s.( &.0.R q.n 1 ;.J.C.=       ",
"      # { N + q R w.R K O.u.( K U G U U R J U U R 6.x.y.( ;.0.Q q.n 4 3.J.A.;       ",
"      # { n 1 O.l.0.R K O.u.( K U U U U U U U R R 0.x.s.( ;.0.R q.n 1 :.J.C.#       ",
"      # { n 1 :.x.0.R K O.x.0.0.6.6.6.8.6.6.6.6.0.j.n.s.( :.q.R y.b 6 <.J.A.=       ",
"      # { n 6 3.x.0.R K { :.3.:.4.:.6.:.3.:.:.3.:.:.3.&.R | &.R 0.N 1 <.J.A.=       ",
"      # ` N 1 3.x.0.R U J K R J K K R R J K R J R K J U K R K R q.n 4 3.K.C.#       ",
"      # { N 1 3.n.6.R R R J R K R K J K J R J R J J R R K K K R q.b 1 3.K.A.=       ",
"      # | V 4 6.n.s.3.;.;.3.:.:.<.<.<.<.:.3.:.3.:.:.<.;.:.:.<.<.x.N 1 3.P.A.=       ",
"      @ N x 1 R { { { { { { { { { { { { { { { { { { o.{ { { { { { z > R B.s.*       ",
"      . @ . . * $ * $ * # = @ & * $ $ * $ * $ * = * $ $ * $ $ * * @ . # = # .       ",
"                                                                                    ",
"                                                                                    ",
"                                                                                    "
};
