/* XPM */
static char *_8b5a8549304449ac2fb25a835acfceaOsmSS97IhYoBn0tO[] = {
/* columns rows colors chars-per-pixel */
"64 64 182 2 ",
"   c None",
".  c #000101",
"X  c #08080B",
"o  c #0E0B1D",
"O  c #040A16",
"+  c #131312",
"@  c #1E1416",
"#  c #1E1C1C",
"$  c #211E1A",
"%  c #160F2C",
"&  c #001428",
"*  c #1F1F20",
"=  c #001F3A",
"-  c #1C1434",
";  c #2C1C2E",
":  c #1E2124",
">  c #1C252C",
",  c #152634",
"<  c #222422",
"1  c #393633",
"2  c #3B3C3C",
"3  c #393632",
"4  c #332A32",
"5  c #552F37",
"6  c #251A45",
"7  c #05325C",
"8  c #2E225B",
"9  c #023664",
"0  c #342561",
"q  c #5C3748",
"w  c #623B4C",
"e  c #453A68",
"r  c #0D406D",
"t  c #184577",
"y  c #3F4474",
"u  c #2E587D",
"i  c #26436B",
"p  c #4C4D4E",
"a  c #554C49",
"s  c #5B564F",
"d  c #4F5050",
"f  c #535351",
"g  c #5D5852",
"h  c #5B5B5B",
"j  c #565758",
"k  c #4A5442",
"l  c #625C5B",
"z  c #5A5266",
"x  c #625B76",
"c  c #6E4867",
"v  c #6F6463",
"b  c #6C696C",
"n  c #636366",
"m  c #726D6C",
"M  c #71726F",
"N  c #777A7A",
"B  c #9C5562",
"V  c #956B74",
"C  c #8A857B",
"Z  c #4C378D",
"A  c #534187",
"S  c #58429B",
"D  c #695C93",
"F  c #624996",
"G  c #50718B",
"H  c #5A7793",
"J  c #77758E",
"K  c #495FA4",
"L  c #6249B4",
"P  c #6C6EB7",
"I  c #584CC2",
"U  c #694CC6",
"Y  c #7557CA",
"T  c #7858DF",
"R  c #7254D7",
"E  c #7862CA",
"W  c #7D61D5",
"Q  c #7B79CB",
"!  c #7857E1",
"~  c #7C5CE3",
"^  c #827985",
"/  c #867E9F",
"(  c #A3748A",
")  c #8D6CA6",
"_  c #DA7B8A",
"`  c #8567E2",
"'  c #876AE3",
"]  c #8A6BE4",
"[  c #8D71E4",
"{  c #8D73E8",
"}  c #9177E1",
"|  c #918681",
" . c #948A85",
".. c #9B9487",
"X. c #8E8F92",
"o. c #969795",
"O. c #898986",
"+. c #A48A8F",
"@. c #AE9F93",
"#. c #AEA29A",
"$. c #B0A89A",
"%. c #ABBD9C",
"&. c #A9A38C",
"*. c #9895A0",
"=. c #858BBE",
"-. c #AE9EBE",
";. c #ABA6AB",
":. c #B3ADA3",
">. c #B7BCA0",
",. c #AFB6B8",
"<. c #DA8795",
"1. c #CF949F",
"2. c #E1808F",
"3. c #E7939B",
"4. c #EA8E99",
"5. c #DA9CA6",
"6. c #F29AA7",
"7. c #DFB3A7",
"8. c #C5ABB0",
"9. c #DBB9BF",
"0. c #C4B6AE",
"q. c #E3ADA3",
"w. c #E3B3A6",
"e. c #EEB6B9",
"r. c #F5B5BB",
"t. c #D5CAA9",
"y. c #DCD9BB",
"u. c #C6D6B0",
"i. c #E1C2AF",
"p. c #C6E1AD",
"a. c #D8E7BE",
"s. c #C4EAB2",
"d. c #9E83CE",
"f. c #B293DD",
"g. c #BCBFC6",
"h. c #B4A8DC",
"j. c #9E85E9",
"k. c #AB8EE4",
"l. c #A488E1",
"z. c #B199ED",
"x. c #A996E4",
"c. c #A6A1E1",
"v. c #AFAAF2",
"b. c #C49FD8",
"n. c #DEBCC1",
"m. c #C3B1DE",
"M. c #EABAC5",
"N. c #C4ADE7",
"B. c #CEB6E1",
"V. c #C7B8E7",
"C. c #C9BBF3",
"Z. c #C5C5C5",
"A. c #DECEC6",
"S. c #DFDFDF",
"D. c #DDD1D3",
"F. c #E6CCCC",
"G. c #FACCCB",
"H. c #E1D0C7",
"J. c #E7D7C7",
"K. c #E0D4D6",
"L. c #E9DAD5",
"P. c #FBDFD9",
"I. c #FAD1D5",
"U. c #E9CCD5",
"Y. c #D6F2C0",
"T. c #D9F5C2",
"R. c #F6EDDA",
"E. c #FBECDC",
"W. c #F9E5DB",
"Q. c #FEF1DB",
"!. c #EEE6D4",
"~. c #DEC9E3",
"^. c #D3CDFD",
"/. c #C8D2F9",
"(. c #DADFFC",
"). c #EDD9E3",
"_. c #E8D4E5",
"`. c #F2DFE2",
"'. c #E0D9F7",
"]. c #DFE1E0",
"[. c #FDEBE1",
"{. c #E6E7FE",
/* pixels */
"                                                                                                                                ",
"                                                                                                                                ",
"                                                                                                                                ",
"                                                                                                                                ",
"                                                                                                                                ",
"                                                                                                                                ",
"                                                                                                                                ",
"                                                                                                                                ",
"                                                                                                                                ",
"                                                                                                                                ",
"                                                                                                                                ",
"                                                        ]                         [ '                                           ",
"                                                      ] '.(./.                  /.{.C.T                                         ",
"                                                      c.n g.^.!               { {.X.J v.                                        ",
"                                                      c.n O./ Z             8 S *.M J v.                                        ",
"                                                      ] (.b + . . . . . . . . . * ;.C.~                                         ",
"                                                        ] V.o.. . . . . . . . $ Z.x.`                                           ",
"                                                          x 2 . . . . . . . . X f D                                             ",
"                                                          . . . . . . . . . . . . .                                             ",
"                                                        . . . . @ # # # $ # + . . . .                                           ",
"                                                        . . . * 0.H.A.A.D.H.| . . . .                                           ",
"                                                      . . . 1 #.W.[.[.[.[.[.H.| + . . .                                         ",
"                                                      . 6 o g [.~.[.[.[.[._.).D.* - - .                                         ",
"                                                      - Y 0 l `.z.~.[.[.[.N.N.A.4 S S o                                         ",
"                                                      Y } ` d.L.{ B.[.[.[.l.k.L.E } } U                                         ",
"                                                      R e L k.`.` B.[.[.[.l.l.).[ A A !                                         ",
"                                                      L X 8 ) F.f.~.[.[.[.N.b.M.F % - T                                         ",
"                                                        o o w 6.W.[.E.[.[.[.G._ ; o o                                           ",
"                                                        U U d.P.E.[.E.[.[.[.W.U.Y U U                                           ",
"                                                          ! E H H z  .L.v |     ~ !                                             ",
"                                                            I r G > 3 C + j     R                                               ",
"                                                                Q.g . . # $.Q.                                                  ",
"                                                              Q.Q.s . # Z.R.Q.R.                                                ",
"                                                            7.a.Y.k . X p %.T.a.3.                                              ",
"                                                          1.e.t.t.C j h h &.t.t.r.V                                             ",
"                                                        < o.F.6._ 9.].].S.5.2.6.K.n <                                           ",
"                                                . B w.s.y.l b D.4 # * * * @ v D.2 ..a.p.4.5 .                                   ",
"                                                . +.G.w.a.>.C d X . O = . . # n ..u.y.w.I.a .                                   ",
"                                                . N 8.r.t.R.$.+ k $ & 7 X 3 3 # L.J.i.r.;.d                                     ",
"                                                  . h D.<.y.0.8 J.s & 7 O @.#.: Z.5.5.Z.<                                       ",
"                                                      * @ $ = i 4.x 9 9   4.( 7 ; @ @ :                                         ",
"                                                            z P q D K 9 Q c z P                                                 ",
"                                                              m.M -.d.t h.^ ^ V.                                                ",
"                                                              R.Q.Q.,.u !.R.Q.R.                                                ",
"                                                                                                                                ",
"                                                                                                                                ",
"                                                                                                                                ",
"                                                                                                                                ",
"                                                                                                                                ",
"                                                                                                                                ",
"                                                                                                                                ",
"                                                                                                                                ",
"                                                                                                                                ",
"                                                                                                                                ",
"                                                                                                                                ",
"                                                                                                                                ",
"                                                                                                                                ",
"                                                                                                                                ",
"                                                                                                                                ",
"                                                                                                                                ",
"                                                                                                                                ",
"                                                                                                                                ",
"                                                                                                                                ",
"                                                                                                                                "
};
